<svg xmlns="http://www.w3.org/2000/svg" width="400" height="800" version="1.0">
<defs>
<marker orient="auto" refY="0" refX="0" id="Arrow2Mend" style="overflow:visible">
<path style="fill-rule:evenodd;stroke-width:0.625;stroke-linejoin:round" d="M-5.231-2.42L1.324-0.01L-5.231 2.401C-4.184 0.978-4.19-0.969-5.231-2.42z" />
</marker>
<marker orient="auto" refY="0" refX="0" id="Arrow2Send" style="overflow:visible">
<path style="fill-rule:evenodd;stroke-width:0.625;stroke-linejoin:round" d="M-1.926-1.21L1.352-0.005L-1.926 1.201C-1.402 0.489-1.405-0.485-1.926-1.21z" />
</marker>
</defs>
<g transform="translate(-228.797,-19.362)" style="font-size:20px;font-family:Verdana">
<g style="fill:none;stroke:#000;stroke-width:2">
<path d="M311.547 49.362h20v20h-20zM331.547 49.362h20v20h-20zM351.547 49.362h20v20h-20zM371.547 49.362h20v20h-20zM391.547 49.362h20v20h-20zM411.547 49.362h20v20h-20zM431.547 49.362h20v20h-20zM451.547 49.362h20v20h-20z" />
<path d="M471.547 49.362h20v20h-20z" />
<path style="stroke:#636363" d="M311.547 99.362h20v20h-20zM331.547 99.362h20v20h-20zM351.547 99.362h20v20h-20zM371.547 99.362h20v20h-20zM391.547 99.362h20v20h-20zM411.547 99.362h20v20h-20zM431.547 99.362h20v20h-20zM451.547 99.362h20v20h-20z" />
<path style="fill:#434343;stroke-width:3" d="M471.547 99.362h20v20h-20z" />
<path style="stroke:#636363" d="M311.547 149.362h20v20h-20zM471.547 149.362h20v20h-20zM351.547 149.362h20v20h-20zM371.547 149.362h20v20h-20zM391.547 149.362h20v20h-20zM411.547 149.362h20v20h-20zM431.547 149.362h20v20h-20zM331.547 149.362h20v20h-20z" />
<path style="fill:#434343;stroke-width:3" d="M451.547 149.362h20v20h-20z" />
<path style="stroke:#636363" d="M311.547 201.362h20v20h-20zM471.547 201.362h20v20h-20zM351.547 201.362h20v20h-20zM371.547 201.362h20v20h-20zM391.547 201.362h20v20h-20zM411.547 201.362h20v20h-20zM331.547 201.362h20v20h-20zM451.547 201.362h20v20h-20z" />
<path style="fill:#434343;stroke-width:3" d="M431.547 201.362h20v20h-20z" />
<path style="stroke:#636363" d="M311.547 253.362h20v20h-20zM471.547 253.362h20v20h-20zM351.547 253.362h20v20h-20zM371.547 253.362h20v20h-20zM391.547 253.362h20v20h-20zM331.547 253.362h20v20h-20zM431.547 253.362h20v20h-20zM451.547 253.362h20v20h-20z" />
<path style="fill:#434343;stroke-width:3" d="M411.547 253.362h20v20h-20z" />
<path style="stroke:#636363" d="M311.547 305.362h20v20h-20zM471.547 305.362h20v20h-20zM411.547 305.362h20v20h-20zM371.547 305.362h20v20h-20zM351.547 305.362h20v20h-20zM331.547 305.362h20v20h-20zM431.547 305.362h20v20h-20zM451.547 305.362h20v20h-20z" />
<path style="fill:#434343;stroke-width:3" d="M391.547 305.362h20v20h-20z" />
<path d="M311.547 357.362h20v20h-20zM471.547 357.362h20v20h-20zM411.547 357.362h20v20h-20zM391.547 357.362h20v20h-20zM351.547 357.362h20v20h-20zM331.547 357.362h20v20h-20zM431.547 357.362h20v20h-20zM451.547 357.362h20v20h-20z" />
<path style="stroke:#636363" d="M371.547 357.362h20v20h-20z" />
<path style="stroke:#636363" d="M259.547 436.608h20v20h-20zM279.547 436.608h20v20h-20z" />
<path style="fill:#434343;stroke-width:3" d="M299.547 436.608h20v20h-20z" />
<path d="M299.547 489.362h20v20h-20zM279.547 489.362h20v20h-20zM259.547 489.362h20v20h-20z" />
<path style="stroke:#636363" d="M465.547 437.362h20v20h-20zM445.547 437.362h20v20h-20zM485.547 437.362h20v20h-20zM505.547 437.362h20v20h-20z" />
<path style="fill:#434343;stroke-width:3" d="M525.547 437.362h20v20h-20z" />
<path style="stroke:#636363" d="M525.547 489.362h20v20h-20zM445.547 489.362h20v20h-20zM485.547 489.362h20v20h-20zM465.547 489.362h20v20h-20z" />
<path style="fill:#434343;stroke-width:3" d="M505.547 489.362h20v20h-20z" />
<path d="M525.547 541.362h20v20h-20zM445.547 541.362h20v20h-20zM505.547 541.362h20v20h-20zM465.547 541.362h20v20h-20z" />
<path style="stroke:#636363.5" d="M485.547 541.362h20v20h-20z" />
<path style="stroke:#636363" d="M557.547 625.362h20v20h-20z" />
<path style="fill:#434343;stroke-width:3" d="M577.547 625.362h20v20h-20z" />
<path d="M577.547 677.362h20v20h-20zM557.547 677.362h20v20h-20z" />
<path d="M393.547 625.362h20v20h-20zM413.547 625.362h20v20h-20z" />
<path d="M311.547 769.362h20v20h-20zM331.547 769.362h20v20h-20zM351.547 769.362h20v20h-20zM371.547 769.362h20v20h-20zM391.547 769.362h20v20h-20zM411.547 769.362h20v20h-20zM431.547 769.362h20v20h-20zM451.547 769.362h20v20h-20z" />
<path d="M471.547 769.362h20v20h-20z" />
</g>
<g style="fill:#FFF">
<text y="116.657" x="474.896">4</text>
<text x="454.896" y="166.657">4</text>
<text y="218.657" x="434.896">4</text>
<text x="414.896" y="270.657">4</text>
<text y="322.657" x="394.896">4</text>
<text y="453.902" x="302.896">2</text>
<text x="528.896" y="454.657">7</text>
<text y="506.657" x="508.896">7</text>
<text x="580.896" y="642.657">8</text>
</g>
<g style="fill:#000">
<text x="314.896" y="66.657">3</text>
<text y="66.657" x="334.896">7</text>
<text x="354.896" y="66.657">8</text>
<text y="66.657" x="374.896">5</text>
<text x="394.896" y="66.657">2</text>
<text y="66.657" x="414.896">1</text>
<text x="434.896" y="66.657">9</text>
<text y="66.657" x="454.896">5</text>
<text x="474.896" y="66.657">4</text>
<text y="116.657" x="314.896">3</text>
<text x="334.896" y="116.657">7</text>
<text y="116.657" x="354.896">8</text>
<text x="374.896" y="116.657">5</text>
<text y="116.657" x="394.896">2</text>
<text x="414.896" y="116.657">1</text>
<text y="116.657" x="434.896">9</text>
<text x="454.896" y="116.657">5</text>
<text x="314.896" y="166.657">3</text>
<text y="166.657" x="474.896">7</text>
<text x="354.896" y="166.657">8</text>
<text y="166.657" x="374.896">5</text>
<text x="394.896" y="166.657">2</text>
<text y="166.657" x="414.896">1</text>
<text x="434.896" y="166.657">9</text>
<text y="166.657" x="334.896">5</text>
<text y="218.657" x="314.896">3</text>
<text x="474.896" y="218.657">7</text>
<text y="218.657" x="354.896">8</text>
<text x="374.896" y="218.657">5</text>
<text y="218.657" x="394.896">2</text>
<text x="414.896" y="218.657">1</text>
<text y="218.657" x="334.896">9</text>
<text x="454.896" y="218.657">5</text>
<text x="314.896" y="270.657">3</text>
<text y="270.657" x="474.896">7</text>
<text x="354.896" y="270.657">8</text>
<text y="270.657" x="374.896">5</text>
<text x="394.896" y="270.657">2</text>
<text y="270.657" x="334.896">1</text>
<text x="434.896" y="270.657">9</text>
<text y="270.657" x="454.896">5</text>
<text y="322.657" x="314.896">3</text>
<text x="474.896" y="322.657">7</text>
<text y="322.657" x="414.896">8</text>
<text x="374.896" y="322.657">5</text>
<text y="322.657" x="354.896">2</text>
<text x="334.896" y="322.657">1</text>
<text y="322.657" x="434.896">9</text>
<text x="454.896" y="322.657">5</text>
<text x="314.896" y="374.657">3</text>
<text y="374.657" x="474.896">7</text>
<text x="414.896" y="374.657">8</text>
<text y="374.657" x="394.896">5</text>
<text x="354.896" y="374.657">2</text>
<text y="374.657" x="334.896">1</text>
<text x="434.896" y="374.657">9</text>
<text y="374.657" x="454.896">5</text>
<text x="374.896" y="374.657">4</text>
<text y="453.902" x="262.896">3</text>
<text x="282.896" y="453.902">1</text>
<text y="506.657" x="302.896">3</text>
<text y="506.657" x="282.896">2</text>
<text x="262.896" y="506.657">1</text>
<text y="454.657" x="468.896">8</text>
<text x="448.896" y="454.657">5</text>
<text y="454.657" x="488.896">9</text>
<text x="508.896" y="454.657">5</text>
<text x="528.896" y="506.657">8</text>
<text y="506.657" x="448.896">5</text>
<text x="488.896" y="506.657">9</text>
<text y="506.657" x="468.896">5</text>
<text x="488.896" y="558.657">7</text>
<text y="558.657" x="528.896">8</text>
<text x="448.896" y="558.657">5</text>
<text y="558.657" x="508.896">9</text>
<text x="468.896" y="558.657">5</text>
<text x="560.896" y="642.657">9</text>
<text y="694.657" x="560.896">8</text>
<text y="694.657" x="580.896">9</text>
<text y="642.657" x="396.896">5</text>
<text y="642.657" x="416.896">5</text>
<text y="786.657" x="314.896">1</text>
<text x="334.896" y="786.657">2</text>
<text y="786.657" x="354.896">3</text>
<text x="374.896" y="786.657">4</text>
<text y="786.657" x="394.896">5</text>
<text x="414.896" y="786.657">5</text>
<text y="786.657" x="434.896">7</text>
<text x="454.896" y="786.657">8</text>
<text y="786.657" x="474.896">9</text>
</g>
	<g style="fill:none;stroke:#000;stroke-width:2;marker-end:url(#Arrow2Mend)">
<path d="M341.75 383.362L341.75 402.362L289.75 402.362L289.75 420.362" />
<path d="M441.948 383.362L441.948 402.362L493.948 402.362L493.948 420.362" />
<path d="M525.948 569.362L525.948 588.362L577.948 588.362L577.948 606.362" />
<path d="M465.788 569.362L465.788 588.362L413.788 588.362L413.788 606.362" />
<path d="M289.375 517.349L289.375 638.553L341.713 638.553L341.713 759.758" />
<path d="M382.344 381.683L382.344 759.758" />
<path d="M413.334 650.261L413.334 759.758" />
<path d="M495.973 567.621L495.973 677.118L440.192 677.118L440.192 759.758" />
<path d="M577.235 702.599L577.235 732.211L470.493 732.211L470.493 759.758" />
</g>
<g style="fill:none;stroke:#000;stroke-width:2;marker-end:url(#Arrow2Send)">
<path d="M483.931 95.507L483.931 88.964L466.748 88.964L466.748 95.507" />
<path d="M457.931 95.507L457.931 88.964L342.217 88.964L342.217 95.507" />
<path d="M340.797 124.045L340.797 130.588L482.68 130.588L482.68 124.045" />
<path d="M461.931 145.196L461.931 138.652L444.748 138.652L444.748 145.196" />
<path d="M437.931 145.196L437.931 138.652L341.92 138.652L341.92 145.196" />
<path d="M340.797 174.356L340.797 180.9L462.933 180.9L462.933 174.356" />
<path d="M443.931 197.196L443.931 190.652L426.748 190.652L426.748 197.196" />
<path d="M417.931 197.196L417.931 190.652L340.654 190.652L340.654 197.196" />
<path d="M340.797 226.356L340.797 232.9L442.909 232.9L442.909 226.356" />
<path d="M423.931 249.196L423.931 242.652L406.748 242.652L406.748 249.196" />
<path d="M397.931 249.196L397.931 242.652L360.44 242.652L360.44 249.196" />
<path d="M360.797 278.356L360.797 284.9L422.95 284.9L422.95 278.356" />
<path d="M403.931 301.196L403.931 294.652L381.274 294.652L381.274 301.196" />
<path d="M381.985 330.356L381.985 336.9L402.696 336.9L402.696 330.356" />
<path d="M313.111 431.196L313.111 424.652L294.994 424.652L294.994 431.196" />
<path d="M287.111 431.196L287.111 424.652L269.633 424.652L269.633 431.196" />
<path d="M269.985 462.356L269.985 468.9L309.401 468.9L309.401 462.356" />
<path d="M539.111 431.196L539.111 424.652L520.994 424.652L520.994 431.196" />
<path d="M513.111 431.196L513.111 424.652L475.177 424.652L475.177 431.196" />
<path d="M473.985 462.356L473.985 468.9L535.347 468.9L535.347 462.356" />
<path d="M515.111 483.196L515.111 476.652L495.767 476.652L495.767 483.196" />
<path d="M494.347 515.045L494.347 521.589L513.69 521.589L513.69 515.045" />
<path d="M587.111 619.196L587.111 612.652L567.767 612.652L567.767 619.196" />
<path d="M568.347 651.045L568.347 657.589L587.69 657.589L587.69 651.045" />
</g></g>
</svg>
